<svg xmlns="http://www.w3.org/2000/svg" version="1.1" xmlns:xlink="http://www.w3.org/1999/xlink" xmlns:svgjs="http://svgjs.dev/svgjs" width="1500" height="1500" viewBox="0 0 1500 1500"><rect width="1500" height="1500" fill="#ffffff"></rect><g transform="matrix(0.6666666666666666,0,0,0.6666666666666666,249.39393939393938,438.5856950067477)"><svg viewBox="0 0 396 247" data-background-color="#fa6402" preserveAspectRatio="xMidYMid meet" height="935" width="1500" xmlns="http://www.w3.org/2000/svg" xmlns:xlink="http://www.w3.org/1999/xlink"><g id="tight-bounds" transform="matrix(1,0,0,1,0.2400000000000091,-0.09999999999999432)"><svg viewBox="0 0 395.52 247.2" height="247.2" width="395.52"><g><svg></svg></g><g><svg viewBox="0 0 395.52 247.2" height="247.2" width="395.52"><g transform="matrix(1,0,0,1,128.41198397863818,47.215199999999996)"><svg viewBox="0 0 138.69603204272363 152.7696" height="152.7696" width="138.69603204272363"><g><svg viewBox="0 0 138.69603204272363 152.7696" height="152.7696" width="138.69603204272363"><g><svg viewBox="0 0 138.69603204272363 152.7696" height="152.7696" width="138.69603204272363"><g><svg viewBox="0 0 138.69603204272363 152.7696" height="152.7696" width="138.69603204272363"><g id="textblocktransform"><svg viewBox="0 0 138.69603204272363 152.7696" height="152.7696" width="138.69603204272363" id="textblock"><g><svg viewBox="0 0 138.69603204272363 152.7696" height="152.7696" width="138.69603204272363"><g transform="matrix(1,0,0,1,0,0)"><svg width="138.69603204272363" viewBox="0.5 -37.25 34 37.45" height="152.7696" data-palette-color="#f9f7f4"><path d="M0.5-3.35L0.5-3.35Q0.5-3.65 0.85-3.9 1.2-4.15 1.68-4.35 2.15-4.55 2.63-4.7 3.1-4.85 3.35-4.95L3.35-4.95Q5.75-4.65 8.15-4.45 10.55-4.25 12.95-4.25L12.95-4.25Q13.85-4.25 15.45-4.28 17.05-4.3 18.95-4.45 20.85-4.6 22.8-4.93 24.75-5.25 26.35-5.85 27.95-6.45 28.95-7.35 29.95-8.25 29.95-9.6L29.95-9.6Q29.95-10.7 29.48-11.58 29-12.45 28.23-13.13 27.45-13.8 26.5-14.25L26.5-14.25Q26.15-14.45 25.75-14.6L25.75-14.6Q26.15-14.4 26.5-14.2L26.5-14.2Q27.4-13.7 28.13-12.98 28.85-12.25 29.3-11.38 29.75-10.5 29.75-9.4L29.75-9.4Q29.75-8.2 28.88-7.38 28-6.55 26.63-6 25.25-5.45 23.58-5.15 21.9-4.85 20.25-4.7 18.6-4.55 17.2-4.53 15.8-4.5 15-4.5L15-4.5Q12.45-4.5 9.88-4.67 7.3-4.85 4.75-5.1L4.75-5.1Q5.65-5.35 6.58-5.48 7.5-5.6 8.45-5.6L8.45-5.6Q10.05-5.6 11.6-5.58 13.15-5.55 14.7-5.55L14.7-5.55Q16.55-5.55 18.35-5.63 20.15-5.7 22.05-6L22.05-6 22.2-5.4Q22.95-5.55 24.1-5.88 25.25-6.2 26.33-6.7 27.4-7.2 28.18-7.95 28.95-8.7 28.95-9.7L28.95-9.7Q28.95-11.15 27.9-12.25 26.85-13.35 25.23-14.23 23.6-15.1 21.55-15.75 19.5-16.4 17.53-16.9 15.55-17.4 13.8-17.8 12.05-18.2 11-18.55L11-18.55 11-18.25Q12.05-17.85 13.75-17.43 15.45-17 17.43-16.5 19.4-16 21.4-15.38 23.4-14.75 25.03-13.9 26.65-13.05 27.68-11.95 28.7-10.85 28.7-9.45L28.7-9.45Q28.7-8.65 27.95-8.05 27.2-7.45 26.18-7.03 25.15-6.6 24.1-6.35 23.05-6.1 22.5-6L22.5-6Q23.15-6.15 24.18-6.43 25.2-6.7 26.18-7.15 27.15-7.6 27.85-8.22 28.55-8.85 28.55-9.7L28.55-9.7Q28.55-11.1 27.45-12.05 26.35-13 24.55-13.75 22.75-14.5 20.45-15.1 18.15-15.7 15.73-16.4 13.3-17.1 11-18 8.7-18.9 6.9-20.25 5.1-21.6 4-23.45 2.9-25.3 2.9-27.9L2.9-27.9Q2.9-30.45 4.13-32.23 5.35-34 7.28-35.13 9.2-36.25 11.5-36.75 13.8-37.25 15.95-37.25L15.95-37.25Q19.1-37.25 22.13-36.35 25.15-35.45 27.85-33.85L27.85-33.85Q27.55-33.75 27.5-33.58 27.45-33.4 27.43-33.2 27.4-33 27.33-32.85 27.25-32.7 27-32.7L27-32.7Q26.8-32.7 26.23-32.88 25.65-33.05 25-33.27 24.35-33.5 23.75-33.7 23.15-33.9 22.95-34L22.95-34 22.8-33.55Q23.25-33.35 23.98-32.98 24.7-32.6 25.38-32.08 26.05-31.55 26.53-30.95 27-30.35 27-29.75L27-29.75Q27-29.1 26.4-29.1L26.4-29.1Q25.65-29.1 24.63-29.5 23.6-29.9 22.35-30.38 21.1-30.85 19.68-31.25 18.25-31.65 16.8-31.65L16.8-31.65Q15.85-31.65 14.58-31.48 13.3-31.3 12.13-30.83 10.95-30.35 10.15-29.53 9.35-28.7 9.35-27.45L9.35-27.45Q9.35-26.3 10.43-25.5 11.5-24.7 13.28-24.05 15.05-23.4 17.3-22.8 19.55-22.2 21.93-21.48 24.3-20.75 26.55-19.8 28.8-18.85 30.58-17.5 32.35-16.15 33.43-14.3 34.5-12.45 34.5-9.95L34.5-9.95Q34.5-7.5 33.5-5.8 32.5-4.1 30.85-2.98 29.2-1.85 27.1-1.23 25-0.6 22.78-0.28 20.55 0.05 18.38 0.13 16.2 0.2 14.45 0.2L14.45 0.2 9.45 0.2Q9 0.2 8.22 0.18 7.45 0.15 6.7 0.08 5.95 0 5.4-0.2 4.85-0.4 4.85-0.7L4.85-0.7 4.9-0.95Q6.95-0.85 8.95-0.78 10.95-0.7 13-0.7L13-0.7Q14.9-0.7 16.8-0.7L16.8-0.7Q18.5-0.75 20.2-0.9L20.2-0.9Q19.35-0.85 18.5-0.8L18.5-0.8Q17.45-0.8 16.45-0.8L16.45-0.8 14.45-0.8Q9.75-0.8 5.2-1.1L5.2-1.1Q5.3-1.5 5.3-1.65L5.3-1.65Q5.3-1.85 5.2-2.05L5.2-2.05Q5.1-2.05 4.93-2.02 4.75-2 4.5-2L4.5-2Q3.95-2 3.28-2.05 2.6-2.1 1.98-2.25 1.35-2.4 0.93-2.68 0.5-2.95 0.5-3.35ZM31.2-4.65L31.2-4.65Q30.35-3.9 29.4-3.4L29.4-3.4Q28.55-2.95 27.65-2.55L27.65-2.55Q28.55-2.85 29.4-3.25L29.4-3.25Q30.35-3.65 31.2-4.65Z" opacity="1" transform="matrix(1,0,0,1,0,0)" fill="#000000" class="wordmark-text-0" data-fill-palette-color="primary" id="text-0"></path></svg></g></svg></g></svg></g></svg></g></svg></g></svg></g></svg></g><path d="M310.713 41.215L310.713 0 63.513 0 63.513 247.2 310.713 247.2 310.713 205.985 296.936 205.985 296.936 233.423 77.29 233.423 77.29 13.777 296.936 13.777 296.936 41.215Z" fill="#000000" stroke="transparent" data-fill-palette-color="tertiary"></path></svg></g><defs></defs></svg><rect width="395.52" height="247.2" fill="none" stroke="none" visibility="hidden"></rect></g></svg></g></svg>